%TF.GenerationSoftware,KiCad,Pcbnew,8.0.6*%
%TF.CreationDate,2024-11-06T08:04:58-03:00*%
%TF.ProjectId,EME,454d452e-6b69-4636-9164-5f7063625858,1.0*%
%TF.SameCoordinates,Original*%
%TF.FileFunction,Profile,NP*%
%FSLAX46Y46*%
G04 Gerber Fmt 4.6, Leading zero omitted, Abs format (unit mm)*
G04 Created by KiCad (PCBNEW 8.0.6) date 2024-11-06 08:04:58*
%MOMM*%
%LPD*%
G01*
G04 APERTURE LIST*
%TA.AperFunction,Profile*%
%ADD10C,0.200000*%
%TD*%
G04 APERTURE END LIST*
D10*
X32645538Y-20472786D02*
X34845538Y-20472786D01*
X35645538Y-20472786D02*
X37845538Y-20472786D01*
X38645538Y-20472786D02*
X40845538Y-20472786D01*
X41645538Y-20472786D02*
X43845538Y-20472786D01*
X44645538Y-20472786D02*
X46845538Y-20472786D01*
X47645538Y-20472786D02*
X49845538Y-20472786D01*
X50645538Y-20472786D02*
X52845538Y-20472786D01*
X53645538Y-20472786D02*
X55845538Y-20472786D01*
X56645538Y-20472786D02*
X58845538Y-20472786D01*
X59645538Y-20472786D02*
X61845538Y-20472786D01*
X62645538Y-20472786D02*
X64845538Y-20472786D01*
X65645538Y-20472786D02*
X67845538Y-20472786D01*
X68645538Y-20472786D02*
X70845538Y-20472786D01*
X71645538Y-20472786D02*
X73845538Y-20472786D01*
X74645538Y-20472786D02*
X76845538Y-20472786D01*
X77645538Y-20472786D02*
X79845538Y-20472786D01*
X80645538Y-20472786D02*
X82845538Y-20472786D01*
X83645538Y-20472786D02*
X85845538Y-20472786D01*
X86645538Y-20472786D02*
X88845538Y-20472786D01*
X89645538Y-20472786D02*
X91845538Y-20472786D01*
X92645538Y-20472786D02*
X94845538Y-20472786D01*
X95645538Y-20472786D02*
X97845538Y-20472786D01*
X98645538Y-20472786D02*
X100845538Y-20472786D01*
X101645538Y-20472786D02*
X103845538Y-20472786D01*
X104645538Y-20472786D02*
X106845538Y-20472786D01*
X107645538Y-20472786D02*
X109845538Y-20472786D01*
X110645538Y-20472786D02*
X112845538Y-20472786D01*
X113645538Y-20472786D02*
X115845538Y-20472786D01*
X116645538Y-20472786D02*
X118845538Y-20472786D01*
X119645538Y-20472786D02*
X121845538Y-20472786D01*
X122645538Y-20472786D02*
X124845538Y-20472786D01*
X125645538Y-20472786D02*
X127845538Y-20472786D01*
X128645538Y-20472786D02*
X130845538Y-20472786D01*
X131645538Y-20472786D02*
X132645538Y-20472786D01*
X132645538Y-20472786D02*
X132645538Y-22672786D01*
X132645538Y-23472786D02*
X132645538Y-25672786D01*
X132645538Y-26472786D02*
X132645538Y-28672786D01*
X132645538Y-29472786D02*
X132645538Y-31672786D01*
X132645538Y-32472786D02*
X132645538Y-34672786D01*
X132645538Y-35472786D02*
X132645538Y-37672786D01*
X132645538Y-38472786D02*
X132645538Y-40672786D01*
X132645538Y-41472786D02*
X132645538Y-43672786D01*
X132645538Y-44472786D02*
X132645538Y-46672786D01*
X132645538Y-47472786D02*
X132645538Y-49672786D01*
X132645538Y-50472786D02*
X132645538Y-52672786D01*
X132645538Y-53472786D02*
X132645538Y-55672786D01*
X132645538Y-56472786D02*
X132645538Y-58672786D01*
X132645538Y-59472786D02*
X132645538Y-61672786D01*
X132645538Y-62472786D02*
X132645538Y-64672786D01*
X132645538Y-65472786D02*
X132645538Y-67672786D01*
X132645538Y-68472786D02*
X132645538Y-70672786D01*
X132645538Y-71472786D02*
X132645538Y-73672786D01*
X132645538Y-74472786D02*
X132645538Y-76672786D01*
X132645538Y-77472786D02*
X132645538Y-79672786D01*
X132645538Y-80472786D02*
X132645538Y-82672786D01*
X132645538Y-83472786D02*
X132645538Y-85672786D01*
X132645538Y-86472786D02*
X132645538Y-88672786D01*
X132645538Y-89472786D02*
X132645538Y-91672786D01*
X132645538Y-92472786D02*
X132645538Y-94672786D01*
X132645538Y-95472786D02*
X132645538Y-97672786D01*
X132645538Y-98472786D02*
X132645538Y-98502786D01*
X132645538Y-98502786D02*
X130445538Y-98502786D01*
X129645538Y-98502786D02*
X127445538Y-98502786D01*
X126645538Y-98502786D02*
X124445538Y-98502786D01*
X123645538Y-98502786D02*
X121445538Y-98502786D01*
X120645538Y-98502786D02*
X118445538Y-98502786D01*
X117645538Y-98502786D02*
X115445538Y-98502786D01*
X114645538Y-98502786D02*
X112445538Y-98502786D01*
X111645538Y-98502786D02*
X109445538Y-98502786D01*
X108645538Y-98502786D02*
X106445538Y-98502786D01*
X105645538Y-98502786D02*
X103445538Y-98502786D01*
X102645538Y-98502786D02*
X100445538Y-98502786D01*
X99645538Y-98502786D02*
X97445538Y-98502786D01*
X96645538Y-98502786D02*
X94445538Y-98502786D01*
X93645538Y-98502786D02*
X91445538Y-98502786D01*
X90645538Y-98502786D02*
X88445538Y-98502786D01*
X87645538Y-98502786D02*
X85445538Y-98502786D01*
X84645538Y-98502786D02*
X82445538Y-98502786D01*
X81645538Y-98502786D02*
X79445538Y-98502786D01*
X78645538Y-98502786D02*
X76445538Y-98502786D01*
X75645538Y-98502786D02*
X73445538Y-98502786D01*
X72645538Y-98502786D02*
X70445538Y-98502786D01*
X69645538Y-98502786D02*
X67445538Y-98502786D01*
X66645538Y-98502786D02*
X64445538Y-98502786D01*
X63645538Y-98502786D02*
X61445538Y-98502786D01*
X60645538Y-98502786D02*
X58445538Y-98502786D01*
X57645538Y-98502786D02*
X55445538Y-98502786D01*
X54645538Y-98502786D02*
X52445538Y-98502786D01*
X51645538Y-98502786D02*
X49445538Y-98502786D01*
X48645538Y-98502786D02*
X46445538Y-98502786D01*
X45645538Y-98502786D02*
X43445538Y-98502786D01*
X42645538Y-98502786D02*
X40445538Y-98502786D01*
X39645538Y-98502786D02*
X37445538Y-98502786D01*
X36645538Y-98502786D02*
X34445538Y-98502786D01*
X33645538Y-98502786D02*
X32645538Y-98502786D01*
X32645538Y-98502786D02*
X32645538Y-96302786D01*
X32645538Y-95502786D02*
X32645538Y-93302786D01*
X32645538Y-92502786D02*
X32645538Y-90302786D01*
X32645538Y-89502786D02*
X32645538Y-87302786D01*
X32645538Y-86502786D02*
X32645538Y-84302786D01*
X32645538Y-83502786D02*
X32645538Y-81302786D01*
X32645538Y-80502786D02*
X32645538Y-78302786D01*
X32645538Y-77502786D02*
X32645538Y-75302786D01*
X32645538Y-74502786D02*
X32645538Y-72302786D01*
X32645538Y-71502786D02*
X32645538Y-69302786D01*
X32645538Y-68502786D02*
X32645538Y-66302786D01*
X32645538Y-65502786D02*
X32645538Y-63302786D01*
X32645538Y-62502786D02*
X32645538Y-60302786D01*
X32645538Y-59502786D02*
X32645538Y-57302786D01*
X32645538Y-56502786D02*
X32645538Y-54302786D01*
X32645538Y-53502786D02*
X32645538Y-51302786D01*
X32645538Y-50502786D02*
X32645538Y-48302786D01*
X32645538Y-47502786D02*
X32645538Y-45302786D01*
X32645538Y-44502786D02*
X32645538Y-42302786D01*
X32645538Y-41502786D02*
X32645538Y-39302786D01*
X32645538Y-38502786D02*
X32645538Y-36302786D01*
X32645538Y-35502786D02*
X32645538Y-33302786D01*
X32645538Y-32502786D02*
X32645538Y-30302786D01*
X32645538Y-29502786D02*
X32645538Y-27302786D01*
X32645538Y-26502786D02*
X32645538Y-24302786D01*
X32645538Y-23502786D02*
X32645538Y-21302786D01*
X32645538Y-20502786D02*
X32645538Y-20472786D01*
M02*
