M48
; DRILL file {KiCad 8.0.6} date 2024-11-06T08:05:23-0300
; FORMAT={-:-/ absolute / metric / decimal}
; #@! TF.CreationDate,2024-11-06T08:05:23-03:00
; #@! TF.GenerationSoftware,Kicad,Pcbnew,8.0.6
; #@! TF.FileFunction,Plated,1,2,PTH
FMAT,2
METRIC
; #@! TA.AperFunction,Plated,PTH,ViaDrill
T1C0.500
; #@! TA.AperFunction,Plated,PTH,ComponentDrill
T2C0.500
; #@! TA.AperFunction,Plated,PTH,ComponentDrill
T3C0.800
; #@! TA.AperFunction,Plated,PTH,ComponentDrill
T4C0.900
; #@! TA.AperFunction,Plated,PTH,ViaDrill
T5C1.000
; #@! TA.AperFunction,Plated,PTH,ComponentDrill
T6C1.000
; #@! TA.AperFunction,Plated,PTH,ComponentDrill
T7C1.100
; #@! TA.AperFunction,Plated,PTH,ComponentDrill
T8C1.300
; #@! TA.AperFunction,Plated,PTH,ComponentDrill
T9C1.600
; #@! TA.AperFunction,Plated,PTH,ComponentDrill
T10C3.200
%
G90
G05
T1
X41.72Y-66.67
X45.22Y-61.62
X45.29Y-64.62
X46.69Y-66.76
X49.77Y-42.51
X49.77Y-43.98
X49.77Y-45.43
X52.77Y-42.59
X54.25Y-44.06
X59.13Y-45.43
T2
X34.49Y-93.6
X35.193Y-91.903
X35.193Y-95.297
X35.295Y-24.51
X35.998Y-22.813
X35.998Y-26.207
X36.89Y-91.2
X36.89Y-96.0
X37.695Y-22.11
X37.695Y-26.91
X38.587Y-91.903
X38.587Y-95.297
X39.29Y-93.6
X39.392Y-22.813
X39.392Y-26.207
X40.095Y-24.51
X124.12Y-93.735
X124.823Y-92.038
X124.823Y-95.432
X125.167Y-24.413
X125.87Y-22.716
X125.87Y-26.11
X126.52Y-91.335
X126.52Y-96.135
X127.567Y-22.013
X127.567Y-26.813
X128.217Y-92.038
X128.217Y-95.432
X128.92Y-93.735
X129.264Y-22.716
X129.264Y-26.11
X129.967Y-24.413
T3
X35.09Y-86.36
X35.89Y-76.79
X35.89Y-81.87
X38.43Y-79.33
X39.25Y-50.91
X39.25Y-61.07
X39.35Y-31.33
X39.35Y-41.49
X40.09Y-86.36
X41.56Y-73.84
X41.56Y-84.0
X42.36Y-33.72
X42.36Y-43.88
X42.375Y-52.755
X42.375Y-62.915
X42.76Y-86.34
X42.76Y-96.5
X44.89Y-75.9
X44.89Y-78.44
X44.89Y-80.98
X44.89Y-83.52
X45.4Y-37.99
X45.4Y-48.15
X48.5Y-47.755
X48.5Y-50.295
X48.5Y-52.835
X48.5Y-55.375
X48.5Y-57.915
X48.5Y-60.455
X48.5Y-62.995
X48.5Y-65.535
X49.73Y-30.12
X52.51Y-75.9
X52.51Y-78.44
X52.51Y-80.98
X52.51Y-83.52
X54.17Y-69.235
X55.81Y-73.285
X55.81Y-83.445
X56.12Y-47.755
X56.12Y-50.295
X56.12Y-52.835
X56.12Y-55.375
X56.12Y-57.915
X56.12Y-60.455
X56.12Y-62.995
X56.12Y-65.535
X58.83Y-80.95
X59.23Y-43.58
X59.23Y-53.74
X59.89Y-30.12
X59.96Y-75.24
X63.46Y-75.24
X63.59Y-46.87
X63.59Y-57.03
X63.83Y-80.95
X64.33Y-69.235
X69.99Y-76.61
X69.99Y-86.77
X73.469Y-48.485
X73.469Y-51.025
X73.469Y-53.565
X73.469Y-56.105
X73.469Y-58.645
X73.469Y-61.185
X73.469Y-63.725
X73.469Y-66.265
X73.469Y-68.805
X73.469Y-71.345
X73.469Y-73.885
X73.469Y-76.425
X73.469Y-78.965
X73.469Y-81.505
X73.469Y-84.045
X73.546Y-86.975
X76.5Y-67.23
X78.3Y-23.44
X78.3Y-33.6
X78.47Y-63.94
X78.58Y-70.2
X81.34Y-23.51
X81.34Y-33.67
X81.5Y-67.23
X83.706Y-86.975
X84.33Y-25.14
X84.33Y-28.215
X88.63Y-63.94
X88.74Y-70.2
X89.57Y-35.48
X89.72Y-77.105
X89.72Y-87.265
X93.495Y-81.16
X93.495Y-86.16
X94.49Y-25.14
X94.49Y-28.215
X99.331Y-48.505
X99.331Y-51.045
X99.331Y-53.585
X99.331Y-56.125
X99.331Y-58.665
X99.331Y-61.205
X99.331Y-63.745
X99.331Y-66.285
X99.331Y-68.825
X99.331Y-71.365
X99.331Y-73.905
X99.331Y-76.445
X99.331Y-78.985
X99.331Y-81.525
X99.331Y-84.065
X99.73Y-35.48
X107.81Y-84.67
X112.75Y-78.5
X116.25Y-78.5
X117.97Y-84.67
X120.52Y-77.91
X120.52Y-88.07
X121.0Y-91.0
X121.0Y-96.0
X124.74Y-64.29
X125.68Y-58.83
X129.18Y-58.83
X129.74Y-64.29
T4
X108.31Y-93.25
X110.85Y-93.25
X114.84Y-93.25
X117.38Y-93.25
T5
X48.45Y-87.46
X52.82Y-33.33
X52.89Y-40.6
X53.292Y-92.662
X53.43Y-87.5
X57.295Y-92.685
X58.06Y-89.06
X58.16Y-83.34
X60.84Y-97.01
X60.86Y-89.55
X61.66Y-53.53
X61.74Y-47.96
X66.28Y-80.58
X66.31Y-86.48
X69.92Y-60.09
X69.96Y-69.58
X77.34Y-81.96
X77.36Y-74.77
X79.62Y-74.5
X79.67Y-79.95
X81.49Y-51.03
X81.54Y-58.7
X81.54Y-61.05
X82.931Y-89.725
X91.0Y-61.05
X93.5Y-58.665
X94.82Y-51.045
X96.22Y-86.42
X96.26Y-81.58
X100.231Y-89.725
X104.52Y-59.69
X104.52Y-67.11
X107.26Y-50.98
X107.76Y-32.76
X109.5Y-49.0
X110.62Y-64.0
X110.64Y-71.5
X112.41Y-73.48
X112.43Y-63.99
X112.5Y-36.5
X114.23Y-57.76
X116.2Y-56.08
X118.47Y-32.76
X121.0Y-36.5
T6
X35.875Y-38.885
X35.875Y-41.425
X35.875Y-43.965
X35.875Y-46.505
X35.875Y-49.045
X35.875Y-51.585
X35.875Y-54.125
X35.875Y-56.665
X35.875Y-59.205
X38.97Y-63.97
X38.97Y-66.51
X38.97Y-69.05
X45.22Y-69.31
X45.82Y-26.05
X45.82Y-28.59
X45.82Y-31.13
X45.82Y-33.67
X46.06Y-90.47
X47.615Y-95.11
X47.76Y-69.31
X48.6Y-90.47
X50.155Y-95.11
X50.3Y-69.31
X51.14Y-90.47
X51.59Y-26.77
X52.695Y-95.11
X54.13Y-26.77
X55.235Y-95.11
X56.67Y-26.77
X59.21Y-26.77
X70.36Y-23.74
X70.36Y-26.28
X70.36Y-28.82
X70.36Y-31.36
X70.36Y-33.9
X71.7Y-41.02
X74.24Y-41.02
X74.91Y-23.805
X74.91Y-26.345
X74.91Y-28.885
X74.91Y-31.425
X84.82Y-31.56
X87.36Y-31.56
X89.9Y-31.56
X92.44Y-31.56
X94.98Y-31.56
X103.79Y-46.73
X103.79Y-49.27
X103.79Y-51.81
X103.79Y-54.35
X103.79Y-56.89
X108.21Y-88.16
X108.475Y-25.68
X110.75Y-88.16
X111.015Y-25.68
X113.555Y-25.68
X113.64Y-40.0
X114.64Y-88.11
X114.88Y-61.34
X114.88Y-63.88
X114.88Y-66.42
X114.88Y-68.96
X114.88Y-71.5
X116.095Y-25.68
X116.18Y-40.0
X117.18Y-88.11
X118.635Y-25.68
X118.72Y-40.0
X121.26Y-40.0
X123.8Y-40.0
X126.34Y-40.0
X128.88Y-40.0
T7
X62.52Y-25.48
X62.52Y-31.98
X63.726Y-89.535
X66.266Y-89.535
X67.02Y-25.48
X67.02Y-31.98
X68.806Y-89.535
X98.68Y-27.02
X101.22Y-27.02
X103.76Y-27.02
X123.92Y-77.61
X123.92Y-87.77
X127.32Y-79.41
X127.32Y-81.95
X127.32Y-84.49
T8
X126.92Y-68.49
X126.92Y-73.49
X127.5Y-46.5
X127.5Y-51.5
T9
X120.12Y-55.01
X120.12Y-70.25
T10
X36.89Y-93.6
X37.695Y-24.51
X126.52Y-93.735
X127.567Y-24.413
M30
