%TF.GenerationSoftware,KiCad,Pcbnew,8.0.6*%
%TF.CreationDate,2024-11-06T08:04:58-03:00*%
%TF.ProjectId,EME,454d452e-6b69-4636-9164-5f7063625858,1.0*%
%TF.SameCoordinates,Original*%
%TF.FileFunction,Copper,L1,Top*%
%TF.FilePolarity,Positive*%
%FSLAX46Y46*%
G04 Gerber Fmt 4.6, Leading zero omitted, Abs format (unit mm)*
G04 Created by KiCad (PCBNEW 8.0.6) date 2024-11-06 08:04:58*
%MOMM*%
%LPD*%
G01*
G04 APERTURE LIST*
%ADD10C,0.300000*%
%TA.AperFunction,NonConductor*%
%ADD11C,0.300000*%
%TD*%
%TA.AperFunction,NonConductor*%
%ADD12C,0.200000*%
%TD*%
%TA.AperFunction,ComponentPad*%
%ADD13R,1.700000X1.700000*%
%TD*%
%TA.AperFunction,ComponentPad*%
%ADD14O,1.700000X1.700000*%
%TD*%
%TA.AperFunction,ComponentPad*%
%ADD15R,2.000000X1.200000*%
%TD*%
%TA.AperFunction,ComponentPad*%
%ADD16O,2.000000X1.200000*%
%TD*%
%TA.AperFunction,ComponentPad*%
%ADD17C,1.600000*%
%TD*%
%TA.AperFunction,ComponentPad*%
%ADD18R,2.400000X1.600000*%
%TD*%
%TA.AperFunction,ComponentPad*%
%ADD19O,2.400000X1.600000*%
%TD*%
%TA.AperFunction,ComponentPad*%
%ADD20R,2.600000X2.600000*%
%TD*%
%TA.AperFunction,ComponentPad*%
%ADD21C,2.600000*%
%TD*%
%TA.AperFunction,ComponentPad*%
%ADD22O,1.600000X1.600000*%
%TD*%
%TA.AperFunction,ComponentPad*%
%ADD23R,1.800000X1.800000*%
%TD*%
%TA.AperFunction,ComponentPad*%
%ADD24C,1.800000*%
%TD*%
%TA.AperFunction,ComponentPad*%
%ADD25R,2.200000X2.200000*%
%TD*%
%TA.AperFunction,ComponentPad*%
%ADD26O,2.200000X2.200000*%
%TD*%
%TA.AperFunction,ComponentPad*%
%ADD27C,0.800000*%
%TD*%
%TA.AperFunction,ComponentPad*%
%ADD28C,6.400000*%
%TD*%
%TA.AperFunction,ComponentPad*%
%ADD29R,2.000000X1.905000*%
%TD*%
%TA.AperFunction,ComponentPad*%
%ADD30O,2.000000X1.905000*%
%TD*%
%TA.AperFunction,ComponentPad*%
%ADD31R,1.905000X2.000000*%
%TD*%
%TA.AperFunction,ComponentPad*%
%ADD32O,1.905000X2.000000*%
%TD*%
%TA.AperFunction,ComponentPad*%
%ADD33R,3.200000X3.200000*%
%TD*%
%TA.AperFunction,ComponentPad*%
%ADD34O,3.200000X3.200000*%
%TD*%
%TA.AperFunction,ComponentPad*%
%ADD35C,2.000000*%
%TD*%
%TA.AperFunction,ComponentPad*%
%ADD36C,1.440000*%
%TD*%
%TA.AperFunction,ViaPad*%
%ADD37C,1.500000*%
%TD*%
%TA.AperFunction,ViaPad*%
%ADD38C,1.000000*%
%TD*%
%TA.AperFunction,Conductor*%
%ADD39C,1.200000*%
%TD*%
%TA.AperFunction,Conductor*%
%ADD40C,1.000000*%
%TD*%
%TA.AperFunction,Conductor*%
%ADD41C,1.500000*%
%TD*%
G04 APERTURE END LIST*
D10*
D11*
X140569598Y-52574161D02*
X140573032Y-53574155D01*
X140573032Y-53574155D02*
X139070833Y-52936454D01*
X140574504Y-54002724D02*
X140577939Y-55002718D01*
X140577939Y-55002718D02*
X139075740Y-54365017D01*
X139151584Y-55650478D02*
X139080156Y-55650723D01*
X139080156Y-55650723D02*
X138937054Y-55579785D01*
X138937054Y-55579785D02*
X138865381Y-55508603D01*
X139940237Y-56504917D02*
X140011175Y-56361815D01*
X140011175Y-56361815D02*
X140082358Y-56290142D01*
X140082358Y-56290142D02*
X140224969Y-56218223D01*
X140224969Y-56218223D02*
X140296397Y-56217978D01*
X140296397Y-56217978D02*
X140439498Y-56288915D01*
X140439498Y-56288915D02*
X140511172Y-56360098D01*
X140511172Y-56360098D02*
X140583091Y-56502709D01*
X140583091Y-56502709D02*
X140584072Y-56788422D01*
X140584072Y-56788422D02*
X140513135Y-56931523D01*
X140513135Y-56931523D02*
X140441952Y-57003197D01*
X140441952Y-57003197D02*
X140299341Y-57075116D01*
X140299341Y-57075116D02*
X140227913Y-57075361D01*
X140227913Y-57075361D02*
X140084811Y-57004423D01*
X140084811Y-57004423D02*
X140013138Y-56933241D01*
X140013138Y-56933241D02*
X139941219Y-56790630D01*
X139941219Y-56790630D02*
X139940237Y-56504917D01*
X139940237Y-56504917D02*
X139868319Y-56362306D01*
X139868319Y-56362306D02*
X139796645Y-56291123D01*
X139796645Y-56291123D02*
X139653544Y-56220186D01*
X139653544Y-56220186D02*
X139367831Y-56221167D01*
X139367831Y-56221167D02*
X139225220Y-56293086D01*
X139225220Y-56293086D02*
X139154037Y-56364759D01*
X139154037Y-56364759D02*
X139083100Y-56507861D01*
X139083100Y-56507861D02*
X139084081Y-56793574D01*
X139084081Y-56793574D02*
X139156000Y-56936185D01*
X139156000Y-56936185D02*
X139227673Y-57007367D01*
X139227673Y-57007367D02*
X139370775Y-57078305D01*
X139370775Y-57078305D02*
X139656487Y-57077324D01*
X139656487Y-57077324D02*
X139799098Y-57005405D01*
X139799098Y-57005405D02*
X139870281Y-56933731D01*
X139870281Y-56933731D02*
X139941219Y-56790630D01*
X140588243Y-58002700D02*
X140588733Y-58145556D01*
X140588733Y-58145556D02*
X140517796Y-58288658D01*
X140517796Y-58288658D02*
X140446613Y-58360331D01*
X140446613Y-58360331D02*
X140304002Y-58432250D01*
X140304002Y-58432250D02*
X140018535Y-58504659D01*
X140018535Y-58504659D02*
X139661394Y-58505886D01*
X139661394Y-58505886D02*
X139375436Y-58435439D01*
X139375436Y-58435439D02*
X139232335Y-58364502D01*
X139232335Y-58364502D02*
X139160661Y-58293319D01*
X139160661Y-58293319D02*
X139088742Y-58150708D01*
X139088742Y-58150708D02*
X139088252Y-58007852D01*
X139088252Y-58007852D02*
X139159189Y-57864750D01*
X139159189Y-57864750D02*
X139230372Y-57793077D01*
X139230372Y-57793077D02*
X139372983Y-57721158D01*
X139372983Y-57721158D02*
X139658450Y-57648748D01*
X139658450Y-57648748D02*
X140015591Y-57647522D01*
X140015591Y-57647522D02*
X140301549Y-57717968D01*
X140301549Y-57717968D02*
X140444650Y-57788906D01*
X140444650Y-57788906D02*
X140516324Y-57860089D01*
X140516324Y-57860089D02*
X140588243Y-58002700D01*
X140449066Y-59074612D02*
X140520740Y-59145795D01*
X140520740Y-59145795D02*
X140592659Y-59288406D01*
X140592659Y-59288406D02*
X140593885Y-59645547D01*
X140593885Y-59645547D02*
X140522948Y-59788648D01*
X140522948Y-59788648D02*
X140451765Y-59860322D01*
X140451765Y-59860322D02*
X140309154Y-59932241D01*
X140309154Y-59932241D02*
X140166298Y-59932731D01*
X140166298Y-59932731D02*
X139951768Y-59862039D01*
X139951768Y-59862039D02*
X139091686Y-59007845D01*
X139091686Y-59007845D02*
X139094876Y-59936411D01*
X140596584Y-60431256D02*
X140599773Y-61359822D01*
X140599773Y-61359822D02*
X140026631Y-60861788D01*
X140026631Y-60861788D02*
X140027367Y-61076072D01*
X140027367Y-61076072D02*
X139956429Y-61219174D01*
X139956429Y-61219174D02*
X139885247Y-61290847D01*
X139885247Y-61290847D02*
X139742636Y-61362766D01*
X139742636Y-61362766D02*
X139385495Y-61363993D01*
X139385495Y-61363993D02*
X139242393Y-61293055D01*
X139242393Y-61293055D02*
X139170720Y-61221872D01*
X139170720Y-61221872D02*
X139098801Y-61079261D01*
X139098801Y-61079261D02*
X139097329Y-60650692D01*
X139097329Y-60650692D02*
X139168266Y-60507591D01*
X139168266Y-60507591D02*
X139239449Y-60435917D01*
X139105916Y-63150677D02*
X140105910Y-63147242D01*
X139963053Y-63147733D02*
X140034727Y-63218916D01*
X140034727Y-63218916D02*
X140106646Y-63361527D01*
X140106646Y-63361527D02*
X140107382Y-63575811D01*
X140107382Y-63575811D02*
X140036444Y-63718913D01*
X140036444Y-63718913D02*
X139893833Y-63790832D01*
X139893833Y-63790832D02*
X139108124Y-63793530D01*
X139893833Y-63790832D02*
X140036935Y-63861769D01*
X140036935Y-63861769D02*
X140108854Y-64004380D01*
X140108854Y-64004380D02*
X140109590Y-64218665D01*
X140109590Y-64218665D02*
X140038652Y-64361766D01*
X140038652Y-64361766D02*
X139896041Y-64433685D01*
X139896041Y-64433685D02*
X139110332Y-64436384D01*
X139112785Y-65150665D02*
X140112779Y-65147231D01*
X139969923Y-65147721D02*
X140041596Y-65218904D01*
X140041596Y-65218904D02*
X140113515Y-65361515D01*
X140113515Y-65361515D02*
X140114251Y-65575800D01*
X140114251Y-65575800D02*
X140043313Y-65718901D01*
X140043313Y-65718901D02*
X139900703Y-65790820D01*
X139900703Y-65790820D02*
X139114993Y-65793519D01*
X139900703Y-65790820D02*
X140043804Y-65861757D01*
X140043804Y-65861757D02*
X140115723Y-66004368D01*
X140115723Y-66004368D02*
X140116459Y-66218653D01*
X140116459Y-66218653D02*
X140045521Y-66361755D01*
X140045521Y-66361755D02*
X139902910Y-66433673D01*
X139902910Y-66433673D02*
X139117201Y-66436372D01*
D12*
X133145535Y-98501069D02*
X138692013Y-98482019D01*
X132878312Y-20699250D02*
X138424790Y-20680200D01*
X138105597Y-98484033D02*
X137838374Y-20682214D01*
X138105597Y-98484033D02*
X137838374Y-20682214D01*
X138105597Y-98484033D02*
X137515311Y-97359550D01*
X138105597Y-98484033D02*
X138688145Y-97355522D01*
X137838374Y-20682214D02*
X138428660Y-21806697D01*
X137838374Y-20682214D02*
X137255826Y-21810725D01*
D10*
D11*
X75859825Y-103378328D02*
X75002682Y-103378328D01*
X75431253Y-103378328D02*
X75431253Y-101878328D01*
X75431253Y-101878328D02*
X75288396Y-102092614D01*
X75288396Y-102092614D02*
X75145539Y-102235471D01*
X75145539Y-102235471D02*
X75002682Y-102306900D01*
X76788396Y-101878328D02*
X76931253Y-101878328D01*
X76931253Y-101878328D02*
X77074110Y-101949757D01*
X77074110Y-101949757D02*
X77145539Y-102021185D01*
X77145539Y-102021185D02*
X77216967Y-102164042D01*
X77216967Y-102164042D02*
X77288396Y-102449757D01*
X77288396Y-102449757D02*
X77288396Y-102806900D01*
X77288396Y-102806900D02*
X77216967Y-103092614D01*
X77216967Y-103092614D02*
X77145539Y-103235471D01*
X77145539Y-103235471D02*
X77074110Y-103306900D01*
X77074110Y-103306900D02*
X76931253Y-103378328D01*
X76931253Y-103378328D02*
X76788396Y-103378328D01*
X76788396Y-103378328D02*
X76645539Y-103306900D01*
X76645539Y-103306900D02*
X76574110Y-103235471D01*
X76574110Y-103235471D02*
X76502681Y-103092614D01*
X76502681Y-103092614D02*
X76431253Y-102806900D01*
X76431253Y-102806900D02*
X76431253Y-102449757D01*
X76431253Y-102449757D02*
X76502681Y-102164042D01*
X76502681Y-102164042D02*
X76574110Y-102021185D01*
X76574110Y-102021185D02*
X76645539Y-101949757D01*
X76645539Y-101949757D02*
X76788396Y-101878328D01*
X78216967Y-101878328D02*
X78359824Y-101878328D01*
X78359824Y-101878328D02*
X78502681Y-101949757D01*
X78502681Y-101949757D02*
X78574110Y-102021185D01*
X78574110Y-102021185D02*
X78645538Y-102164042D01*
X78645538Y-102164042D02*
X78716967Y-102449757D01*
X78716967Y-102449757D02*
X78716967Y-102806900D01*
X78716967Y-102806900D02*
X78645538Y-103092614D01*
X78645538Y-103092614D02*
X78574110Y-103235471D01*
X78574110Y-103235471D02*
X78502681Y-103306900D01*
X78502681Y-103306900D02*
X78359824Y-103378328D01*
X78359824Y-103378328D02*
X78216967Y-103378328D01*
X78216967Y-103378328D02*
X78074110Y-103306900D01*
X78074110Y-103306900D02*
X78002681Y-103235471D01*
X78002681Y-103235471D02*
X77931252Y-103092614D01*
X77931252Y-103092614D02*
X77859824Y-102806900D01*
X77859824Y-102806900D02*
X77859824Y-102449757D01*
X77859824Y-102449757D02*
X77931252Y-102164042D01*
X77931252Y-102164042D02*
X78002681Y-102021185D01*
X78002681Y-102021185D02*
X78074110Y-101949757D01*
X78074110Y-101949757D02*
X78216967Y-101878328D01*
X79431252Y-103306900D02*
X79431252Y-103378328D01*
X79431252Y-103378328D02*
X79359823Y-103521185D01*
X79359823Y-103521185D02*
X79288395Y-103592614D01*
X80359824Y-101878328D02*
X80502681Y-101878328D01*
X80502681Y-101878328D02*
X80645538Y-101949757D01*
X80645538Y-101949757D02*
X80716967Y-102021185D01*
X80716967Y-102021185D02*
X80788395Y-102164042D01*
X80788395Y-102164042D02*
X80859824Y-102449757D01*
X80859824Y-102449757D02*
X80859824Y-102806900D01*
X80859824Y-102806900D02*
X80788395Y-103092614D01*
X80788395Y-103092614D02*
X80716967Y-103235471D01*
X80716967Y-103235471D02*
X80645538Y-103306900D01*
X80645538Y-103306900D02*
X80502681Y-103378328D01*
X80502681Y-103378328D02*
X80359824Y-103378328D01*
X80359824Y-103378328D02*
X80216967Y-103306900D01*
X80216967Y-103306900D02*
X80145538Y-103235471D01*
X80145538Y-103235471D02*
X80074109Y-103092614D01*
X80074109Y-103092614D02*
X80002681Y-102806900D01*
X80002681Y-102806900D02*
X80002681Y-102449757D01*
X80002681Y-102449757D02*
X80074109Y-102164042D01*
X80074109Y-102164042D02*
X80145538Y-102021185D01*
X80145538Y-102021185D02*
X80216967Y-101949757D01*
X80216967Y-101949757D02*
X80359824Y-101878328D01*
X81788395Y-101878328D02*
X81931252Y-101878328D01*
X81931252Y-101878328D02*
X82074109Y-101949757D01*
X82074109Y-101949757D02*
X82145538Y-102021185D01*
X82145538Y-102021185D02*
X82216966Y-102164042D01*
X82216966Y-102164042D02*
X82288395Y-102449757D01*
X82288395Y-102449757D02*
X82288395Y-102806900D01*
X82288395Y-102806900D02*
X82216966Y-103092614D01*
X82216966Y-103092614D02*
X82145538Y-103235471D01*
X82145538Y-103235471D02*
X82074109Y-103306900D01*
X82074109Y-103306900D02*
X81931252Y-103378328D01*
X81931252Y-103378328D02*
X81788395Y-103378328D01*
X81788395Y-103378328D02*
X81645538Y-103306900D01*
X81645538Y-103306900D02*
X81574109Y-103235471D01*
X81574109Y-103235471D02*
X81502680Y-103092614D01*
X81502680Y-103092614D02*
X81431252Y-102806900D01*
X81431252Y-102806900D02*
X81431252Y-102449757D01*
X81431252Y-102449757D02*
X81502680Y-102164042D01*
X81502680Y-102164042D02*
X81574109Y-102021185D01*
X81574109Y-102021185D02*
X81645538Y-101949757D01*
X81645538Y-101949757D02*
X81788395Y-101878328D01*
X83216966Y-101878328D02*
X83359823Y-101878328D01*
X83359823Y-101878328D02*
X83502680Y-101949757D01*
X83502680Y-101949757D02*
X83574109Y-102021185D01*
X83574109Y-102021185D02*
X83645537Y-102164042D01*
X83645537Y-102164042D02*
X83716966Y-102449757D01*
X83716966Y-102449757D02*
X83716966Y-102806900D01*
X83716966Y-102806900D02*
X83645537Y-103092614D01*
X83645537Y-103092614D02*
X83574109Y-103235471D01*
X83574109Y-103235471D02*
X83502680Y-103306900D01*
X83502680Y-103306900D02*
X83359823Y-103378328D01*
X83359823Y-103378328D02*
X83216966Y-103378328D01*
X83216966Y-103378328D02*
X83074109Y-103306900D01*
X83074109Y-103306900D02*
X83002680Y-103235471D01*
X83002680Y-103235471D02*
X82931251Y-103092614D01*
X82931251Y-103092614D02*
X82859823Y-102806900D01*
X82859823Y-102806900D02*
X82859823Y-102449757D01*
X82859823Y-102449757D02*
X82931251Y-102164042D01*
X82931251Y-102164042D02*
X83002680Y-102021185D01*
X83002680Y-102021185D02*
X83074109Y-101949757D01*
X83074109Y-101949757D02*
X83216966Y-101878328D01*
X84645537Y-101878328D02*
X84788394Y-101878328D01*
X84788394Y-101878328D02*
X84931251Y-101949757D01*
X84931251Y-101949757D02*
X85002680Y-102021185D01*
X85002680Y-102021185D02*
X85074108Y-102164042D01*
X85074108Y-102164042D02*
X85145537Y-102449757D01*
X85145537Y-102449757D02*
X85145537Y-102806900D01*
X85145537Y-102806900D02*
X85074108Y-103092614D01*
X85074108Y-103092614D02*
X85002680Y-103235471D01*
X85002680Y-103235471D02*
X84931251Y-103306900D01*
X84931251Y-103306900D02*
X84788394Y-103378328D01*
X84788394Y-103378328D02*
X84645537Y-103378328D01*
X84645537Y-103378328D02*
X84502680Y-103306900D01*
X84502680Y-103306900D02*
X84431251Y-103235471D01*
X84431251Y-103235471D02*
X84359822Y-103092614D01*
X84359822Y-103092614D02*
X84288394Y-102806900D01*
X84288394Y-102806900D02*
X84288394Y-102449757D01*
X84288394Y-102449757D02*
X84359822Y-102164042D01*
X84359822Y-102164042D02*
X84431251Y-102021185D01*
X84431251Y-102021185D02*
X84502680Y-101949757D01*
X84502680Y-101949757D02*
X84645537Y-101878328D01*
X86931250Y-103378328D02*
X86931250Y-102378328D01*
X86931250Y-102521185D02*
X87002679Y-102449757D01*
X87002679Y-102449757D02*
X87145536Y-102378328D01*
X87145536Y-102378328D02*
X87359822Y-102378328D01*
X87359822Y-102378328D02*
X87502679Y-102449757D01*
X87502679Y-102449757D02*
X87574108Y-102592614D01*
X87574108Y-102592614D02*
X87574108Y-103378328D01*
X87574108Y-102592614D02*
X87645536Y-102449757D01*
X87645536Y-102449757D02*
X87788393Y-102378328D01*
X87788393Y-102378328D02*
X88002679Y-102378328D01*
X88002679Y-102378328D02*
X88145536Y-102449757D01*
X88145536Y-102449757D02*
X88216965Y-102592614D01*
X88216965Y-102592614D02*
X88216965Y-103378328D01*
X88931250Y-103378328D02*
X88931250Y-102378328D01*
X88931250Y-102521185D02*
X89002679Y-102449757D01*
X89002679Y-102449757D02*
X89145536Y-102378328D01*
X89145536Y-102378328D02*
X89359822Y-102378328D01*
X89359822Y-102378328D02*
X89502679Y-102449757D01*
X89502679Y-102449757D02*
X89574108Y-102592614D01*
X89574108Y-102592614D02*
X89574108Y-103378328D01*
X89574108Y-102592614D02*
X89645536Y-102449757D01*
X89645536Y-102449757D02*
X89788393Y-102378328D01*
X89788393Y-102378328D02*
X90002679Y-102378328D01*
X90002679Y-102378328D02*
X90145536Y-102449757D01*
X90145536Y-102449757D02*
X90216965Y-102592614D01*
X90216965Y-102592614D02*
X90216965Y-103378328D01*
D12*
X132645538Y-99002786D02*
X132645538Y-105086420D01*
X32645538Y-99002786D02*
X32645538Y-105086420D01*
X132645538Y-104500000D02*
X32645538Y-104500000D01*
X132645538Y-104500000D02*
X32645538Y-104500000D01*
X132645538Y-104500000D02*
X131519034Y-105086421D01*
X132645538Y-104500000D02*
X131519034Y-103913579D01*
X32645538Y-104500000D02*
X33772042Y-103913579D01*
X32645538Y-104500000D02*
X33772042Y-105086421D01*
D13*
%TO.P,J3,1,Pin_1*%
%TO.N,+3.3V*%
X51140000Y-90470000D03*
D14*
%TO.P,J3,2,Pin_2*%
%TO.N,GND_G1*%
X48600000Y-90470000D03*
%TO.P,J3,3,Pin_3*%
%TO.N,Net-(J3-Pin_3)*%
X46060000Y-90470000D03*
%TD*%
D15*
%TO.P,U2,1,Enable*%
%TO.N,Rest*%
X73469000Y-48485000D03*
D16*
%TO.P,U2,2,Vp/ADC1_0/SenseVP*%
%TO.N,KY-004_Dg*%
X73469000Y-51025000D03*
%TO.P,U2,3,Vn/ADC1_3/SensVN*%
%TO.N,KY-004_An*%
X73469000Y-53565000D03*
%TO.P,U2,4,D34/ADC1_6*%
%TO.N,MQ135_Dg*%
X73469000Y-56105000D03*
%TO.P,U2,5,D35/ADC1_7*%
%TO.N,MQ135_An*%
X73469000Y-58645000D03*
%TO.P,U2,6,D32/ADC1_2/~*%
%TO.N,S0*%
X73469000Y-61185000D03*
%TO.P,U2,7,D33/ADC1_5/T8/~*%
%TO.N,S1*%
X73469000Y-63725000D03*
%TO.P,U2,8,D25/ADC2_8/DAC1/~*%
%TO.N,S2*%
X73469000Y-66265000D03*
%TO.P,U2,9,D26/ADC2_9/DAC2/~*%
%TO.N,Y*%
X73469000Y-68805000D03*
%TO.P,U2,10,D27/ADC2_7/T7/~*%
%TO.N,G2*%
X73469000Y-71345000D03*
%TO.P,U2,11,D14/ADC2_6/HSPI_CLK/T6/~*%
%TO.N,G1*%
X73469000Y-73885000D03*
%TO.P,U2,12,D12/ADC2_5/HSPI_Q/T5/~*%
%TO.N,GPIO12*%
X73469000Y-76425000D03*
%TO.P,U2,13,D13/ADC2_4/HSPI_ID/T4/~*%
%TO.N,GPIO13*%
X73469000Y-78965000D03*
%TO.P,U2,14,GND*%
%TO.N,GNDREF*%
X73469000Y-81505000D03*
%TO.P,U2,15,Vin(hasta12v)*%
%TO.N,+5V*%
X73469000Y-84045000D03*
%TO.P,U2,16,3v3*%
%TO.N,+3.3V*%
X99331000Y-84065000D03*
%TO.P,U2,17,GND*%
%TO.N,GNDREF*%
X99331000Y-81525000D03*
%TO.P,U2,18,D15/ADC2_3/HSPI_CS0/T3/~*%
%TO.N,DHT22*%
X99331000Y-78985000D03*
%TO.P,U2,19,D2/ADC2_2/HSPI_WP0/T2/~*%
%TO.N,D_hall*%
X99331000Y-76445000D03*
%TO.P,U2,20,D4/ADC2_0/HSPI_HD/T0/~*%
%TO.N,GPIO4*%
X99331000Y-73905000D03*
%TO.P,U2,21,RXD2/D16/~*%
%TO.N,RX2*%
X99331000Y-71365000D03*
%TO.P,U2,22,TXD2/D17/~*%
%TO.N,TX2*%
X99331000Y-68825000D03*
%TO.P,U2,23,D5/SS/V_SPI_CS0/~*%
%TO.N,SS*%
X99331000Y-66285000D03*
%TO.P,U2,24,D18/SCK/V_SPI_CLK/~*%
%TO.N,SCK*%
X99331000Y-63745000D03*
%TO.P,U2,25,D19/MISO/V_SPI_Q/CTS0/~*%
%TO.N,MISO*%
X99331000Y-61205000D03*
%TO.P,U2,26,D21/SDA/VSPI_HD/~*%
%TO.N,SDA*%
X99331000Y-58665000D03*
%TO.P,U2,27,D3/RXD0/CLK2/~*%
%TO.N,RX0*%
X99331000Y-56125000D03*
%TO.P,U2,28,D1/TXD0/CLK3/~*%
%TO.N,TX0*%
X99331000Y-53585000D03*
%TO.P,U2,29,D22/SCL/V_SPI_WP/RTS0/~*%
%TO.N,SCL*%
X99331000Y-51045000D03*
%TO.P,U2,30,D23/MOSI/V_SPI_D/~*%
%TO.N,MOSI*%
X99331000Y-48505000D03*
%TD*%
D13*
%TO.P,J17,1,Pin_1*%
%TO.N,GND_G1*%
X38970000Y-63970000D03*
D14*
%TO.P,J17,2,Pin_2*%
%TO.N,Net-(J17-Pin_2)*%
X38970000Y-66510000D03*
%TO.P,J17,3,Pin_3*%
%TO.N,+3.3V*%
X38970000Y-69050000D03*
%TD*%
D17*
%TO.P,C8,1*%
%TO.N,+3.3V*%
X93495000Y-86160000D03*
%TO.P,C8,2*%
%TO.N,GNDREF*%
X93495000Y-81160000D03*
%TD*%
D18*
%TO.P,U3,1,Pin_1*%
%TO.N,Net-(J2-Pin_5)*%
X48500000Y-47755000D03*
D19*
%TO.P,U3,2,Pin_2*%
%TO.N,Net-(J2-Pin_6)*%
X48500000Y-50295000D03*
%TO.P,U3,3,Pin_3*%
%TO.N,Net-(J2-Pin_7)*%
X48500000Y-52835000D03*
%TO.P,U3,4,Pin_4*%
%TO.N,Net-(J2-Pin_8)*%
X48500000Y-55375000D03*
%TO.P,U3,5,Pin_5*%
%TO.N,Net-(J16-Pin_1)*%
X48500000Y-57915000D03*
%TO.P,U3,6,Pin_6*%
%TO.N,Net-(J16-Pin_3)*%
X48500000Y-60455000D03*
%TO.P,U3,7,Pin_7*%
%TO.N,Net-(J17-Pin_2)*%
X48500000Y-62995000D03*
%TO.P,U3,8,Pin_8*%
%TO.N,GND_G1*%
X48500000Y-65535000D03*
%TO.P,U3,9,Pin_9*%
%TO.N,S2*%
X56120000Y-65535000D03*
%TO.P,U3,10,Pin_10*%
%TO.N,S1*%
X56120000Y-62995000D03*
%TO.P,U3,11,Pin_11*%
%TO.N,S0*%
X56120000Y-60455000D03*
%TO.P,U3,12,Pin_12*%
%TO.N,Net-(J2-Pin_1)*%
X56120000Y-57915000D03*
%TO.P,U3,13,Pin_13*%
%TO.N,Net-(J2-Pin_2)*%
X56120000Y-55375000D03*
%TO.P,U3,14,Pin_14*%
%TO.N,Net-(J2-Pin_3)*%
X56120000Y-52835000D03*
%TO.P,U3,15,Pin_15*%
%TO.N,Net-(J2-Pin_4)*%
X56120000Y-50295000D03*
%TO.P,U3,16,Pin_16*%
%TO.N,+3.3V*%
X56120000Y-47755000D03*
%TD*%
D13*
%TO.P,J19,1,Pin_1*%
%TO.N,GND_G2*%
X108475000Y-25680000D03*
D14*
%TO.P,J19,2,Pin_2*%
%TO.N,SDA*%
X111015000Y-25680000D03*
%TO.P,J19,3,Pin_3*%
%TO.N,SCL*%
X113555000Y-25680000D03*
%TO.P,J19,4,Pin_4*%
%TO.N,+3.3V*%
X116095000Y-25680000D03*
%TO.P,J19,5,Pin_5*%
%TO.N,+5V*%
X118635000Y-25680000D03*
%TD*%
D13*
%TO.P,J2,1,Pin_1*%
%TO.N,Net-(J2-Pin_1)*%
X35875000Y-38885000D03*
D14*
%TO.P,J2,2,Pin_2*%
%TO.N,Net-(J2-Pin_2)*%
X35875000Y-41425000D03*
%TO.P,J2,3,Pin_3*%
%TO.N,Net-(J2-Pin_3)*%
X35875000Y-43965000D03*
%TO.P,J2,4,Pin_4*%
%TO.N,Net-(J2-Pin_4)*%
X35875000Y-46505000D03*
%TO.P,J2,5,Pin_5*%
%TO.N,Net-(J2-Pin_5)*%
X35875000Y-49045000D03*
%TO.P,J2,6,Pin_6*%
%TO.N,Net-(J2-Pin_6)*%
X35875000Y-51585000D03*
%TO.P,J2,7,Pin_7*%
%TO.N,Net-(J2-Pin_7)*%
X35875000Y-54125000D03*
%TO.P,J2,8,Pin_8*%
%TO.N,Net-(J2-Pin_8)*%
X35875000Y-56665000D03*
%TO.P,J2,9,Pin_9*%
%TO.N,GND_G1*%
X35875000Y-59205000D03*
%TD*%
D20*
%TO.P,J5,1,Pin_1*%
%TO.N,GNDREF*%
X127500000Y-51500000D03*
D21*
%TO.P,J5,2,Pin_2*%
%TO.N,Net-(D1-A)*%
X127500000Y-46500000D03*
%TD*%
D13*
%TO.P,J7,1,Pin_1*%
%TO.N,+3.3V*%
X55235000Y-95110000D03*
D14*
%TO.P,J7,2,Pin_2*%
%TO.N,DHT22*%
X52695000Y-95110000D03*
%TO.P,J7,3,Pin_3*%
%TO.N,unconnected-(J7-Pin_3-Pad3)*%
X50155000Y-95110000D03*
%TO.P,J7,4,Pin_4*%
%TO.N,GND_G1*%
X47615000Y-95110000D03*
%TD*%
D13*
%TO.P,J16,1,Pin_1*%
%TO.N,Net-(J16-Pin_1)*%
X45220000Y-69310000D03*
D14*
%TO.P,J16,2,Pin_2*%
%TO.N,Y*%
X47760000Y-69310000D03*
%TO.P,J16,3,Pin_3*%
%TO.N,Net-(J16-Pin_3)*%
X50300000Y-69310000D03*
%TD*%
D17*
%TO.P,R14,1*%
%TO.N,Net-(J2-Pin_7)*%
X42375000Y-52755000D03*
D22*
%TO.P,R14,2*%
%TO.N,GND_G1*%
X42375000Y-62915000D03*
%TD*%
D17*
%TO.P,C3,1*%
%TO.N,+5V*%
X121000000Y-91000000D03*
%TO.P,C3,2*%
%TO.N,GNDREF*%
X121000000Y-96000000D03*
%TD*%
%TO.P,R15,1*%
%TO.N,Net-(J2-Pin_8)*%
X54170000Y-69235000D03*
D22*
%TO.P,R15,2*%
%TO.N,GND_G1*%
X64330000Y-69235000D03*
%TD*%
D23*
%TO.P,D3,1,K*%
%TO.N,GNDREF*%
X114840000Y-93250000D03*
D24*
%TO.P,D3,2,A*%
%TO.N,Net-(D3-A)*%
X117380000Y-93250000D03*
%TD*%
D13*
%TO.P,J11,1,Pin_1*%
%TO.N,GND_G2*%
X114880000Y-71500000D03*
D14*
%TO.P,J11,2,Pin_2*%
%TO.N,RX2*%
X114880000Y-68960000D03*
%TO.P,J11,3,Pin_3*%
%TO.N,TX2*%
X114880000Y-66420000D03*
%TO.P,J11,4,Pin_4*%
%TO.N,+5V*%
X114880000Y-63880000D03*
%TO.P,J11,5,Pin_5*%
%TO.N,+3.3V*%
X114880000Y-61340000D03*
%TD*%
D17*
%TO.P,R18,1*%
%TO.N,GNDREF*%
X69990000Y-76610000D03*
D22*
%TO.P,R18,2*%
%TO.N,Net-(Q1-G)*%
X69990000Y-86770000D03*
%TD*%
D13*
%TO.P,J13,1,Pin_1*%
%TO.N,GND_G2*%
X103790000Y-56890000D03*
D14*
%TO.P,J13,2,Pin_2*%
%TO.N,RX0*%
X103790000Y-54350000D03*
%TO.P,J13,3,Pin_3*%
%TO.N,TX0*%
X103790000Y-51810000D03*
%TO.P,J13,4,Pin_4*%
%TO.N,+5V*%
X103790000Y-49270000D03*
%TO.P,J13,5,Pin_5*%
%TO.N,+3.3V*%
X103790000Y-46730000D03*
%TD*%
D13*
%TO.P,J4,1,Pin_1*%
%TO.N,KY-004_An*%
X51590000Y-26770000D03*
D14*
%TO.P,J4,2,Pin_2*%
%TO.N,KY-004_Dg*%
X54130000Y-26770000D03*
%TO.P,J4,3,Pin_3*%
%TO.N,GND_G1*%
X56670000Y-26770000D03*
%TO.P,J4,4,Pin_4*%
%TO.N,+3.3V*%
X59210000Y-26770000D03*
%TD*%
D25*
%TO.P,D4,1,K*%
%TO.N,+BATT*%
X123920000Y-77610000D03*
D26*
%TO.P,D4,2,A*%
%TO.N,+5V*%
X123920000Y-87770000D03*
%TD*%
D13*
%TO.P,J1,1,Pin_1*%
%TO.N,+3.3V*%
X74910000Y-23805000D03*
D14*
%TO.P,J1,2,Pin_2*%
%TO.N,SCL*%
X74910000Y-26345000D03*
%TO.P,J1,3,Pin_3*%
%TO.N,SDA*%
X74910000Y-28885000D03*
%TO.P,J1,4,Pin_4*%
%TO.N,GND_G1*%
X74910000Y-31425000D03*
%TD*%
D13*
%TO.P,J18,1,Pin_1*%
%TO.N,+3.3V*%
X84820000Y-31560000D03*
D14*
%TO.P,J18,2,Pin_2*%
%TO.N,GPIO12*%
X87360000Y-31560000D03*
%TO.P,J18,3,Pin_3*%
%TO.N,GPIO13*%
X89900000Y-31560000D03*
%TO.P,J18,4,Pin_4*%
%TO.N,GPIO4*%
X92440000Y-31560000D03*
%TO.P,J18,5,Pin_5*%
%TO.N,GND_G2*%
X94980000Y-31560000D03*
%TD*%
D27*
%TO.P,H4,1*%
%TO.N,N/C*%
X125167056Y-24412944D03*
X125870000Y-22715888D03*
X125870000Y-26110000D03*
X127567056Y-22012944D03*
D28*
X127567056Y-24412944D03*
D27*
X127567056Y-26812944D03*
X129264112Y-22715888D03*
X129264112Y-26110000D03*
X129967056Y-24412944D03*
%TD*%
D17*
%TO.P,R6,1*%
%TO.N,SDA*%
X78300000Y-33600000D03*
D22*
%TO.P,R6,2*%
%TO.N,+3.3V*%
X78300000Y-23440000D03*
%TD*%
D17*
%TO.P,C6,1*%
%TO.N,+3.3V*%
X59960000Y-75240000D03*
%TO.P,C6,2*%
%TO.N,GND_G1*%
X63460000Y-75240000D03*
%TD*%
%TO.P,R7,1*%
%TO.N,DHT22*%
X89720000Y-77105000D03*
D22*
%TO.P,R7,2*%
%TO.N,+3.3V*%
X89720000Y-87265000D03*
%TD*%
D17*
%TO.P,R22,1*%
%TO.N,GND_G2*%
X94490000Y-25140000D03*
D22*
%TO.P,R22,2*%
%TO.N,GPIO13*%
X84330000Y-25140000D03*
%TD*%
D17*
%TO.P,C2,1*%
%TO.N,+BATT*%
X125680000Y-58830000D03*
%TO.P,C2,2*%
%TO.N,GNDREF*%
X129180000Y-58830000D03*
%TD*%
D27*
%TO.P,H2,1*%
%TO.N,N/C*%
X126520000Y-91335000D03*
X128217056Y-92037944D03*
X124822944Y-92037944D03*
X128920000Y-93735000D03*
D28*
X126520000Y-93735000D03*
D27*
X124120000Y-93735000D03*
X128217056Y-95432056D03*
X124822944Y-95432056D03*
X126520000Y-96135000D03*
%TD*%
D17*
%TO.P,R3,1*%
%TO.N,+5V*%
X117970000Y-84670000D03*
D22*
%TO.P,R3,2*%
%TO.N,Net-(J9-Pin_1)*%
X107810000Y-84670000D03*
%TD*%
D29*
%TO.P,U1,1,VI*%
%TO.N,+BATT*%
X127320000Y-79410000D03*
D30*
%TO.P,U1,2,GND*%
%TO.N,GNDREF*%
X127320000Y-81950000D03*
%TO.P,U1,3,VO*%
%TO.N,+5V*%
X127320000Y-84490000D03*
%TD*%
D17*
%TO.P,R9,1*%
%TO.N,Net-(J2-Pin_2)*%
X39350000Y-41490000D03*
D22*
%TO.P,R9,2*%
%TO.N,GND_G1*%
X39350000Y-31330000D03*
%TD*%
D31*
%TO.P,Q2,1,G*%
%TO.N,Net-(Q2-G)*%
X98680000Y-27020000D03*
D32*
%TO.P,Q2,2,D*%
%TO.N,GND_G2*%
X101220000Y-27020000D03*
%TO.P,Q2,3,S*%
%TO.N,GNDREF*%
X103760000Y-27020000D03*
%TD*%
D17*
%TO.P,R12,1*%
%TO.N,Net-(J2-Pin_5)*%
X45400000Y-48150000D03*
D22*
%TO.P,R12,2*%
%TO.N,GND_G1*%
X45400000Y-37990000D03*
%TD*%
D17*
%TO.P,C1,1*%
%TO.N,+BATT*%
X124740000Y-64290000D03*
%TO.P,C1,2*%
%TO.N,GNDREF*%
X129740000Y-64290000D03*
%TD*%
%TO.P,R20,1*%
%TO.N,Net-(Q2-G)*%
X88740000Y-70200000D03*
D22*
%TO.P,R20,2*%
%TO.N,G2*%
X78580000Y-70200000D03*
%TD*%
D33*
%TO.P,D1,1,K*%
%TO.N,+BATT*%
X120120000Y-70250000D03*
D34*
%TO.P,D1,2,A*%
%TO.N,Net-(D1-A)*%
X120120000Y-55010000D03*
%TD*%
D17*
%TO.P,R16,1*%
%TO.N,Rest*%
X59890000Y-30120000D03*
D22*
%TO.P,R16,2*%
%TO.N,+3.3V*%
X49730000Y-30120000D03*
%TD*%
D17*
%TO.P,R24,1*%
%TO.N,+BATT*%
X120520000Y-77910000D03*
D22*
%TO.P,R24,2*%
%TO.N,Net-(J20-Pin_1)*%
X120520000Y-88070000D03*
%TD*%
D17*
%TO.P,R8,1*%
%TO.N,Net-(J2-Pin_1)*%
X59230000Y-53740000D03*
D22*
%TO.P,R8,2*%
%TO.N,GND_G1*%
X59230000Y-43580000D03*
%TD*%
D20*
%TO.P,J8,1,Pin_1*%
%TO.N,+BATT*%
X126920000Y-73490000D03*
D21*
%TO.P,J8,2,Pin_2*%
%TO.N,GNDREF*%
X126920000Y-68490000D03*
%TD*%
D17*
%TO.P,C5,1*%
%TO.N,Net-(U5A-+)*%
X40090000Y-86360000D03*
%TO.P,C5,2*%
%TO.N,GND_G1*%
X35090000Y-86360000D03*
%TD*%
%TO.P,R11,1*%
%TO.N,Net-(J2-Pin_4)*%
X63590000Y-57030000D03*
D22*
%TO.P,R11,2*%
%TO.N,GND_G1*%
X63590000Y-46870000D03*
%TD*%
D17*
%TO.P,R10,1*%
%TO.N,Net-(J2-Pin_3)*%
X42360000Y-43880000D03*
D22*
%TO.P,R10,2*%
%TO.N,GND_G1*%
X42360000Y-33720000D03*
%TD*%
D27*
%TO.P,H1,1*%
%TO.N,N/C*%
X35295000Y-24510000D03*
X35997944Y-22812944D03*
X35997944Y-26207056D03*
X37695000Y-22110000D03*
D28*
X37695000Y-24510000D03*
D27*
X37695000Y-26910000D03*
X39392056Y-22812944D03*
X39392056Y-26207056D03*
X40095000Y-24510000D03*
%TD*%
D17*
%TO.P,R13,1*%
%TO.N,Net-(J2-Pin_6)*%
X39250000Y-50910000D03*
D22*
%TO.P,R13,2*%
%TO.N,GND_G1*%
X39250000Y-61070000D03*
%TD*%
D35*
%TO.P,SW1,1,1*%
%TO.N,GNDREF*%
X67020000Y-25480000D03*
X67020000Y-31980000D03*
%TO.P,SW1,2,2*%
%TO.N,Rest*%
X62520000Y-25480000D03*
X62520000Y-31980000D03*
%TD*%
D17*
%TO.P,C7,1*%
%TO.N,D_hall*%
X58830000Y-80950000D03*
%TO.P,C7,2*%
%TO.N,GND_G1*%
X63830000Y-80950000D03*
%TD*%
%TO.P,C4,1*%
%TO.N,+5V*%
X116250000Y-78500000D03*
%TO.P,C4,2*%
%TO.N,GNDREF*%
X112750000Y-78500000D03*
%TD*%
D18*
%TO.P,U5,1*%
%TO.N,Net-(U5B-+)*%
X44890000Y-75900000D03*
D19*
%TO.P,U5,2,-*%
%TO.N,Net-(U5A--)*%
X44890000Y-78440000D03*
%TO.P,U5,3,+*%
%TO.N,Net-(U5A-+)*%
X44890000Y-80980000D03*
%TO.P,U5,4,V-*%
%TO.N,GND_G1*%
X44890000Y-83520000D03*
%TO.P,U5,5,+*%
%TO.N,Net-(U5B-+)*%
X52510000Y-83520000D03*
%TO.P,U5,6,-*%
%TO.N,D_hall*%
X52510000Y-80980000D03*
%TO.P,U5,7*%
X52510000Y-78440000D03*
%TO.P,U5,8,V+*%
%TO.N,+3.3V*%
X52510000Y-75900000D03*
%TD*%
D31*
%TO.P,Q1,1,G*%
%TO.N,Net-(Q1-G)*%
X68806000Y-89535000D03*
D32*
%TO.P,Q1,2,D*%
%TO.N,GND_G1*%
X66266000Y-89535000D03*
%TO.P,Q1,3,S*%
%TO.N,GNDREF*%
X63726000Y-89535000D03*
%TD*%
D17*
%TO.P,R1,1*%
%TO.N,+3.3V*%
X41560000Y-73840000D03*
D22*
%TO.P,R1,2*%
%TO.N,Net-(U5A-+)*%
X41560000Y-84000000D03*
%TD*%
D13*
%TO.P,J6,1,Pin_1*%
%TO.N,ADDR*%
X70360000Y-33900000D03*
D14*
%TO.P,J6,2,Pin_2*%
%TO.N,GND_G1*%
X70360000Y-31360000D03*
%TO.P,J6,3,Pin_3*%
%TO.N,SDA*%
X70360000Y-28820000D03*
%TO.P,J6,4,Pin_4*%
%TO.N,SCL*%
X70360000Y-26280000D03*
%TO.P,J6,5,Pin_5*%
%TO.N,+3.3V*%
X70360000Y-23740000D03*
%TD*%
D36*
%TO.P,RV1,1,1*%
%TO.N,+3.3V*%
X35890000Y-76790000D03*
%TO.P,RV1,2,2*%
%TO.N,Net-(U5A--)*%
X38430000Y-79330000D03*
%TO.P,RV1,3,3*%
%TO.N,GND_G1*%
X35890000Y-81870000D03*
%TD*%
D13*
%TO.P,J9,1,Pin_1*%
%TO.N,Net-(J9-Pin_1)*%
X110750000Y-88160000D03*
D14*
%TO.P,J9,2,Pin_2*%
%TO.N,Net-(D2-A)*%
X108210000Y-88160000D03*
%TD*%
D13*
%TO.P,J20,1,Pin_1*%
%TO.N,Net-(J20-Pin_1)*%
X117180000Y-88110000D03*
D14*
%TO.P,J20,2,Pin_2*%
%TO.N,Net-(D3-A)*%
X114640000Y-88110000D03*
%TD*%
D17*
%TO.P,C9,1*%
%TO.N,Rest*%
X76500000Y-67230000D03*
%TO.P,C9,2*%
%TO.N,GNDREF*%
X81500000Y-67230000D03*
%TD*%
%TO.P,R23,1*%
%TO.N,GND_G2*%
X99730000Y-35480000D03*
D22*
%TO.P,R23,2*%
%TO.N,GPIO4*%
X89570000Y-35480000D03*
%TD*%
D17*
%TO.P,R17,1*%
%TO.N,Net-(Q1-G)*%
X73546000Y-86975000D03*
D22*
%TO.P,R17,2*%
%TO.N,G1*%
X83706000Y-86975000D03*
%TD*%
D23*
%TO.P,D2,1,K*%
%TO.N,GNDREF*%
X108310000Y-93250000D03*
D24*
%TO.P,D2,2,A*%
%TO.N,Net-(D2-A)*%
X110850000Y-93250000D03*
%TD*%
D13*
%TO.P,J10,1,Pin_1*%
%TO.N,GNDREF*%
X74240000Y-41020000D03*
D14*
%TO.P,J10,2,Pin_2*%
%TO.N,Rest*%
X71700000Y-41020000D03*
%TD*%
D17*
%TO.P,R4,1*%
%TO.N,Net-(U5A-+)*%
X42760000Y-86340000D03*
D22*
%TO.P,R4,2*%
%TO.N,Net-(J3-Pin_3)*%
X42760000Y-96500000D03*
%TD*%
D17*
%TO.P,R19,1*%
%TO.N,GNDREF*%
X78470000Y-63940000D03*
D22*
%TO.P,R19,2*%
%TO.N,Net-(Q2-G)*%
X88630000Y-63940000D03*
%TD*%
D17*
%TO.P,R2,1*%
%TO.N,+3.3V*%
X55810000Y-73285000D03*
D22*
%TO.P,R2,2*%
%TO.N,Net-(U5B-+)*%
X55810000Y-83445000D03*
%TD*%
D17*
%TO.P,R21,1*%
%TO.N,GND_G2*%
X94490000Y-28215000D03*
D22*
%TO.P,R21,2*%
%TO.N,GPIO12*%
X84330000Y-28215000D03*
%TD*%
D27*
%TO.P,H3,1*%
%TO.N,N/C*%
X34490000Y-93600000D03*
X35192944Y-91902944D03*
X35192944Y-95297056D03*
X36890000Y-91200000D03*
D28*
X36890000Y-93600000D03*
D27*
X36890000Y-96000000D03*
X38587056Y-91902944D03*
X38587056Y-95297056D03*
X39290000Y-93600000D03*
%TD*%
D13*
%TO.P,J12,1,Pin_1*%
%TO.N,SS*%
X128880000Y-40000000D03*
D14*
%TO.P,J12,2,Pin_2*%
%TO.N,SCK*%
X126340000Y-40000000D03*
%TO.P,J12,3,Pin_3*%
%TO.N,MOSI*%
X123800000Y-40000000D03*
%TO.P,J12,4,Pin_4*%
%TO.N,MISO*%
X121260000Y-40000000D03*
%TO.P,J12,5,Pin_5*%
%TO.N,GND_G2*%
X118720000Y-40000000D03*
%TO.P,J12,6,Pin_6*%
%TO.N,+5V*%
X116180000Y-40000000D03*
%TO.P,J12,7,Pin_7*%
%TO.N,+3.3V*%
X113640000Y-40000000D03*
%TD*%
D13*
%TO.P,J14,1,Pin_1*%
%TO.N,MQ135_An*%
X45820000Y-33670000D03*
D14*
%TO.P,J14,2,Pin_2*%
%TO.N,MQ135_Dg*%
X45820000Y-31130000D03*
%TO.P,J14,3,Pin_3*%
%TO.N,GND_G1*%
X45820000Y-28590000D03*
%TO.P,J14,4,Pin_4*%
%TO.N,+3.3V*%
X45820000Y-26050000D03*
%TD*%
D17*
%TO.P,R5,1*%
%TO.N,SCL*%
X81340000Y-33670000D03*
D22*
%TO.P,R5,2*%
%TO.N,+3.3V*%
X81340000Y-23510000D03*
%TD*%
D37*
%TO.N,GNDREF*%
X60840000Y-97010000D03*
X91000000Y-61050000D03*
X79620000Y-74500000D03*
X96220000Y-86420000D03*
X96260000Y-81580000D03*
X79670000Y-79950000D03*
X60860000Y-89550000D03*
X81540000Y-61050000D03*
%TO.N,+5V*%
X82931000Y-89725000D03*
X100231000Y-89725000D03*
X116200000Y-56080000D03*
X109500000Y-49000000D03*
%TO.N,+3.3V*%
X52820000Y-33330000D03*
X114230000Y-57760000D03*
X69960000Y-69580000D03*
X69920000Y-60090000D03*
X112430000Y-63990000D03*
X52890000Y-40600000D03*
X107260000Y-50980000D03*
X112410000Y-73480000D03*
%TO.N,D_hall*%
X58160000Y-83340000D03*
X58060000Y-89060000D03*
%TO.N,SCL*%
X81490000Y-51030000D03*
X94820000Y-51045000D03*
D38*
%TO.N,Net-(J2-Pin_2)*%
X52770000Y-42590000D03*
X49770000Y-42510000D03*
%TO.N,Net-(J2-Pin_3)*%
X49770000Y-43980000D03*
X54250000Y-44060000D03*
%TO.N,Net-(J2-Pin_4)*%
X59130000Y-45430000D03*
D37*
X61660000Y-53530000D03*
D38*
X49770000Y-45430000D03*
D37*
X61740000Y-47960000D03*
%TO.N,DHT22*%
X57295000Y-92685000D03*
X53292500Y-92662500D03*
D38*
%TO.N,GND_G1*%
X41720000Y-66670000D03*
D37*
X48450000Y-87460000D03*
X66280000Y-80580000D03*
X53430000Y-87500000D03*
D38*
X46690000Y-66760000D03*
D37*
X66310000Y-86480000D03*
%TO.N,GND_G2*%
X118470000Y-32760000D03*
X104520000Y-67110000D03*
X107760000Y-32760000D03*
X104520000Y-59690000D03*
X110640000Y-71500000D03*
X110620000Y-64000000D03*
%TO.N,SDA*%
X81540000Y-58700000D03*
X93500000Y-58665000D03*
%TO.N,MOSI*%
X112500000Y-36500000D03*
X121000000Y-36500000D03*
D38*
%TO.N,Net-(J16-Pin_1)*%
X45220000Y-61620000D03*
X45290000Y-64620000D03*
D37*
%TO.N,G1*%
X77360000Y-74770000D03*
X77340000Y-81960000D03*
%TD*%
D39*
%TO.N,GNDREF*%
X91000000Y-61050000D02*
X81540000Y-61050000D01*
D40*
X96220000Y-81620000D02*
X96260000Y-81580000D01*
D39*
X60915000Y-96935000D02*
X60840000Y-97010000D01*
X67020000Y-31980000D02*
X67020000Y-25480000D01*
X79620000Y-79900000D02*
X79670000Y-79950000D01*
D40*
X96220000Y-86420000D02*
X96220000Y-81620000D01*
D39*
X60840000Y-97010000D02*
X60840000Y-89570000D01*
X60840000Y-89570000D02*
X60860000Y-89550000D01*
X79620000Y-74500000D02*
X79620000Y-79900000D01*
D41*
%TO.N,+5V*%
X100231000Y-89725000D02*
X82931000Y-89725000D01*
D40*
X109500000Y-49380000D02*
X116200000Y-56080000D01*
X109500000Y-49000000D02*
X109500000Y-49380000D01*
D39*
%TO.N,+3.3V*%
X112410000Y-73480000D02*
X112410000Y-64010000D01*
X114040000Y-57760000D02*
X114230000Y-57760000D01*
X52820000Y-33330000D02*
X52820000Y-40530000D01*
X112410000Y-64010000D02*
X112430000Y-63990000D01*
X52820000Y-40530000D02*
X52890000Y-40600000D01*
X69960000Y-60130000D02*
X69920000Y-60090000D01*
X107260000Y-50980000D02*
X114040000Y-57760000D01*
X69960000Y-69580000D02*
X69960000Y-60130000D01*
%TO.N,D_hall*%
X58160000Y-83340000D02*
X58160000Y-88960000D01*
X58160000Y-88960000D02*
X58060000Y-89060000D01*
%TO.N,SCL*%
X94820000Y-51045000D02*
X94805000Y-51030000D01*
X94805000Y-51030000D02*
X81490000Y-51030000D01*
D40*
%TO.N,Net-(J2-Pin_2)*%
X52747670Y-42600000D02*
X52677670Y-42530000D01*
X52677670Y-42530000D02*
X49770000Y-42530000D01*
%TO.N,Net-(J2-Pin_3)*%
X49800000Y-43985000D02*
X54200000Y-43985000D01*
X54200000Y-43985000D02*
X54225000Y-44010000D01*
%TO.N,Net-(J2-Pin_4)*%
X61740000Y-53450000D02*
X61660000Y-53530000D01*
X59125000Y-45435000D02*
X59130000Y-45430000D01*
X61740000Y-47960000D02*
X61740000Y-53450000D01*
X59130000Y-45430000D02*
X49800000Y-45435000D01*
X59130000Y-45440000D02*
X59125000Y-45435000D01*
%TO.N,DHT22*%
X57250000Y-92730000D02*
X53360000Y-92730000D01*
X53360000Y-92730000D02*
X53292500Y-92662500D01*
X57295000Y-92685000D02*
X57250000Y-92730000D01*
D39*
%TO.N,GND_G1*%
X48450000Y-87460000D02*
X48490000Y-87500000D01*
D40*
X46690000Y-66760000D02*
X46575000Y-66735000D01*
X66280000Y-86450000D02*
X66310000Y-86480000D01*
X46525000Y-66735000D02*
X46690000Y-66760000D01*
D39*
X48490000Y-87500000D02*
X53430000Y-87500000D01*
D40*
X66280000Y-80580000D02*
X66280000Y-86450000D01*
X46550000Y-66735000D02*
X46525000Y-66735000D01*
X46575000Y-66735000D02*
X41720000Y-66670000D01*
X41720000Y-66670000D02*
X41700000Y-66735000D01*
%TO.N,Rest*%
X62520000Y-31980000D02*
X62520000Y-25480000D01*
%TO.N,GND_G2*%
X118470000Y-32760000D02*
X107760000Y-32760000D01*
X104520000Y-59690000D02*
X104520000Y-67110000D01*
D39*
X110640000Y-64020000D02*
X110620000Y-64000000D01*
X110640000Y-71500000D02*
X110640000Y-64020000D01*
%TO.N,SDA*%
X93495000Y-58670000D02*
X81570000Y-58670000D01*
X93500000Y-58665000D02*
X93495000Y-58670000D01*
X81570000Y-58670000D02*
X81540000Y-58700000D01*
D40*
%TO.N,MOSI*%
X121000000Y-36500000D02*
X112500000Y-36500000D01*
%TO.N,Net-(J16-Pin_1)*%
X45250000Y-64610000D02*
X45250000Y-61635000D01*
%TO.N,G1*%
X77340000Y-78440000D02*
X77340000Y-81960000D01*
X77360000Y-74770000D02*
X77360000Y-78420000D01*
X77360000Y-78420000D02*
X77340000Y-78440000D01*
%TD*%
M02*
